<?xml version="1.0" standalone="no"?>
<!DOCTYPE svg PUBLIC "-//W3C//DTD SVG 20010904//EN"
 "http://www.w3.org/TR/2001/REC-SVG-20010904/DTD/svg10.dtd">
<svg version="1.0" xmlns="http://www.w3.org/2000/svg"
 width="24.000000pt" height="25.000000pt" viewBox="0 0 24.000000 25.000000"
 preserveAspectRatio="xMidYMid meet">
<metadata>
Created by potrace 1.10, written by Peter Selinger 2001-2011
</metadata>
<g transform="translate(0.000000,25.000000) scale(0.100000,-0.100000)"
fill="#000000" stroke="none">
<path d="M22 198 c-7 -7 -12 -35 -12 -63 0 -43 4 -56 28 -78 25 -24 36 -27 98
-27 41 0 75 5 82 12 7 7 12 35 12 63 0 43 -4 56 -28 78 -25 24 -36 27 -98 27
-41 0 -75 -5 -82 -12z m148 -8 c20 -12 19 -98 -1 -111 -16 -10 -99 -12 -123
-3 -20 8 -23 110 -3 117 22 9 111 7 127 -3z m43 -95 c-3 -22 -11 -43 -17 -47
-16 -11 -108 -9 -126 2 -11 7 3 10 46 10 33 0 65 5 72 12 7 7 12 30 12 53 0
29 3 36 10 25 5 -8 7 -33 3 -55z"/>
<path d="M40 141 c0 -17 5 -31 10 -31 6 0 10 11 10 24 0 14 -4 28 -10 31 -6 4
-10 -7 -10 -24z"/>
<path d="M80 156 c-27 -33 18 -72 48 -42 13 13 14 20 6 34 -15 23 -38 26 -54
8z"/>
<path d="M157 163 c-11 -10 -8 -53 3 -53 6 0 10 14 10 30 0 31 -2 35 -13 23z"/>
</g>
</svg>
