<?xml version="1.0" standalone="no"?>
<!DOCTYPE svg PUBLIC "-//W3C//DTD SVG 20010904//EN"
 "http://www.w3.org/TR/2001/REC-SVG-20010904/DTD/svg10.dtd">
<svg version="1.0" xmlns="http://www.w3.org/2000/svg"
 width="24.000000pt" height="25.000000pt" viewBox="0 0 24.000000 25.000000"
 preserveAspectRatio="xMidYMid meet">
<metadata>
Created by potrace 1.10, written by Peter Selinger 2001-2011
</metadata>
<g transform="translate(0.000000,25.000000) scale(0.100000,-0.100000)"
fill="#000000" stroke="none">
<path d="M22 218 c-8 -8 -12 -45 -12 -100 0 -76 2 -89 19 -98 28 -14 174 -13
189 2 16 16 16 140 0 156 -7 7 -26 12 -43 12 -19 0 -39 8 -50 20 -20 23 -83
28 -103 8z m85 -27 c9 -14 26 -21 55 -23 l43 -3 0 -65 0 -65 -65 -3 c-109 -5
-110 -4 -110 87 0 43 3 81 7 84 14 14 59 6 70 -12z"/>
<path d="M85 100 c-3 -5 0 -13 9 -16 21 -8 61 -1 61 11 0 14 -62 19 -70 5z"/>
</g>
</svg>
