<?xml version="1.0" standalone="no"?>
<!DOCTYPE svg PUBLIC "-//W3C//DTD SVG 20010904//EN"
 "http://www.w3.org/TR/2001/REC-SVG-20010904/DTD/svg10.dtd">
<svg version="1.0" xmlns="http://www.w3.org/2000/svg"
 width="24.000000pt" height="25.000000pt" viewBox="0 0 24.000000 25.000000"
 preserveAspectRatio="xMidYMid meet">
<metadata>
Created by potrace 1.10, written by Peter Selinger 2001-2011
</metadata>
<g transform="translate(0.000000,25.000000) scale(0.100000,-0.100000)"
fill="#000000" stroke="none">
<path d="M72 224 c-12 -8 -22 -26 -22 -39 0 -14 -9 -29 -20 -35 -16 -8 -20
-21 -20 -58 0 -27 5 -53 12 -60 16 -16 180 -16 196 0 7 7 12 33 12 60 0 37 -4
50 -20 58 -11 6 -20 21 -20 35 0 28 -34 55 -70 55 -14 0 -36 -7 -48 -16z m82
-20 c31 -30 20 -44 -34 -44 -37 0 -50 4 -50 14 0 20 28 46 50 46 10 0 26 -7
34 -16z m44 -73 c8 -5 12 -23 10 -47 l-3 -39 -85 0 -85 0 -3 33 c-5 51 11 62
87 62 36 0 72 -4 79 -9z"/>
<path d="M92 108 c-18 -18 -15 -36 7 -48 23 -12 47 -5 55 17 13 33 -36 57 -62
31z"/>
</g>
</svg>
