<svg width="263" height="179" viewBox="0 0 263 179" fill="none" xmlns="http://www.w3.org/2000/svg">
<rect x="0.5" y="0.5" width="262" height="178" rx="7.5" fill="#F5F6FA"/>
<rect x="0.5" y="0.5" width="262" height="178" rx="7.5" stroke="#D3D3D3"/>
<path d="M62.76 40.91C62.6282 41.7701 62.7107 42.6494 63 43.47C63.2806 44.1845 63.3193 44.9714 63.11 45.71C62.81 46.24 61.93 46.49 61.11 46.71C60.2788 46.8805 59.5005 47.2474 58.84 47.78C58.3074 48.4405 57.9405 49.2188 57.77 50.05C57.52 50.89 57.27 51.77 56.77 52.05C56.6538 52.1074 56.5287 52.1446 56.4 52.16C56.307 52.1709 56.213 52.1709 56.12 52.16H55.94H55.58H55.49C55.18 52.16 54.85 52.03 54.49 51.95C53.999 51.8404 53.5012 51.7636 53 51.72C52.6657 51.6838 52.3276 51.7041 52 51.78C51.2288 52.0807 50.5424 52.5647 50 53.19L49.9669 53.2211C49.3272 53.8216 48.6684 54.44 48 54.44C47.32 54.44 46.7 53.8 46.05 53.19C45.5076 52.5647 44.8212 52.0807 44.05 51.78C43.8314 51.7227 43.6059 51.6958 43.38 51.7H43.24C42.9886 51.7118 42.7382 51.7385 42.49 51.78H42.38C42.09 51.83 41.8 51.89 41.52 51.96C41.24 52.03 40.81 52.13 40.52 52.18C40.1232 52.2791 39.7047 52.244 39.33 52.08C38.81 51.78 38.55 50.9 38.33 50.08C38.1636 49.2475 37.7963 48.4682 37.26 47.81C36.5995 47.2774 35.8212 46.9105 34.99 46.74C34.15 46.49 33.27 46.24 32.99 45.74C32.7418 45.0031 32.7453 44.2047 33 43.47C33.2743 42.6562 33.3464 41.7879 33.21 40.94C32.9093 40.1688 32.4253 39.4824 31.8 38.94L31.7689 38.9069C31.1684 38.2672 30.55 37.6084 30.55 36.94C30.55 36.26 31.19 35.64 31.8 34.99C32.4253 34.4476 32.9093 33.7612 33.21 32.99C33.3447 32.1454 33.2727 31.2807 33 30.47C32.7194 29.7555 32.6807 28.9686 32.89 28.23C33.19 27.71 34.07 27.45 34.89 27.23C35.7225 27.0636 36.5018 26.6963 37.16 26.16C37.6963 25.5018 38.0636 24.7225 38.23 23.89L38.2335 23.8783C38.4824 23.0418 38.7423 22.1687 39.23 21.89C39.9686 21.6807 40.7555 21.7194 41.47 22C42.2838 22.2743 43.1521 22.3464 44 22.21C44.7712 21.9093 45.4576 21.4253 46 20.8L46.0357 20.7665C46.6745 20.1668 47.3315 19.55 47.95 19.55C48.58 19.55 49.25 20.19 49.95 20.8C50.4924 21.4253 51.1788 21.9093 51.95 22.21C52.7946 22.3447 53.6593 22.2727 54.47 22C55.1845 21.7194 55.9714 21.6807 56.71 21.89C57.24 22.19 57.49 23.07 57.71 23.89C57.8805 24.7212 58.2474 25.4995 58.78 26.16C59.4382 26.6963 60.2175 27.0636 61.05 27.23L61.0617 27.2335C61.8982 27.4824 62.7713 27.7423 63.05 28.23C63.2785 28.9621 63.2609 29.7488 63 30.47C62.7223 31.283 62.6468 32.1513 62.78 33C63.0807 33.7712 63.5647 34.4576 64.19 35L64.2235 35.0357C64.8232 35.6745 65.44 36.3315 65.44 36.95C65.44 37.58 64.8 38.25 64.19 38.95C63.566 39.4895 63.0821 40.1724 62.78 40.94L62.76 40.91Z" fill="#FFC738"/>
<path fill-rule="evenodd" clip-rule="evenodd" d="M64.91 39.61C65.7287 38.9622 66.2747 38.0309 66.44 37C66.2818 35.9583 65.7352 35.0151 64.91 34.36C64.4086 33.9218 64.0092 33.3791 63.74 32.77C63.6684 32.0953 63.7435 31.413 63.96 30.77C64.341 29.8063 64.341 28.7337 63.96 27.77C63.3048 26.9669 62.3746 26.4359 61.35 26.28C60.6823 26.146 60.0513 25.8698 59.5 25.47C59.0983 24.9198 58.8218 24.2884 58.69 23.62C58.5437 22.5916 58.0153 21.6561 57.21 21C56.2467 20.617 55.1733 20.617 54.21 21C53.5667 21.2153 52.8847 21.2903 52.21 21.22C51.5925 20.9375 51.0458 20.5207 50.61 20C49.9571 19.1925 49.0264 18.6576 48 18.5C46.952 18.6433 45.9975 19.1795 45.33 20C44.8918 20.5014 44.3491 20.9008 43.74 21.17C43.0653 21.2416 42.383 21.1665 41.74 20.95C40.7754 20.574 39.7047 20.574 38.74 20.95C37.9369 21.6052 37.4059 22.5354 37.25 23.56C37.116 24.2277 36.8398 24.8587 36.44 25.41C35.8898 25.8117 35.2584 26.0882 34.59 26.22C33.568 26.3811 32.6437 26.92 32 27.73C31.624 28.6946 31.624 29.7654 32 30.73C32.2165 31.373 32.2916 32.0553 32.22 32.73C31.9375 33.3475 31.5207 33.8942 31 34.33C30.1795 34.9975 29.6433 35.952 29.5 37C29.6576 38.0264 30.1925 38.9571 31 39.61C31.5123 40.0451 31.9221 40.588 32.2 41.2C32.2703 41.8747 32.1953 42.5567 31.98 43.2C31.602 44.1643 31.602 45.2357 31.98 46.2C32.632 47.0068 33.5638 47.5387 34.59 47.69C35.2577 47.824 35.8887 48.1002 36.44 48.5C36.8398 49.0513 37.116 49.6823 37.25 50.35C37.3891 51.3892 37.9182 52.3365 38.73 53C39.1199 53.2075 39.559 53.3043 40 53.28V80.84C40.0008 80.9286 40.0241 81.0155 40.0679 81.0925C40.1116 81.1695 40.1743 81.234 40.25 81.28C40.3268 81.3268 40.415 81.3516 40.505 81.3516C40.595 81.3516 40.6832 81.3268 40.76 81.28L48.5 76.66L56.24 81.28C56.3182 81.3277 56.4084 81.3519 56.5 81.35C56.5868 81.3493 56.6723 81.3288 56.75 81.29C56.8257 81.244 56.8884 81.1795 56.9321 81.1025C56.9759 81.0255 56.9992 80.9386 57 80.85V53.07L57.21 52.97C58.0168 52.318 58.5487 51.3862 58.7 50.36C58.834 49.6923 59.1102 49.0613 59.51 48.51C60.0613 48.1102 60.6923 47.834 61.36 47.7C62.3971 47.5559 63.3407 47.0233 64 46.21C64.383 45.2467 64.383 44.1733 64 43.21C63.7847 42.5667 63.7097 41.8847 63.78 41.21C64.0363 40.6011 64.4219 40.0552 64.91 39.61ZM48.5 75.5403C48.5913 75.5403 48.6809 75.5644 48.76 75.61L55.99 80V53.25C55.3948 53.2153 54.8049 53.1181 54.23 52.96C53.5867 52.7447 52.9047 52.6697 52.23 52.74C51.6209 53.0092 51.0782 53.4086 50.64 53.91C49.9849 54.7352 49.0417 55.2818 48 55.44C46.9475 55.2891 45.9924 54.7418 45.33 53.91C44.8918 53.4086 44.3491 53.0092 43.74 52.74C43.5956 52.7071 43.4481 52.6903 43.3 52.69C42.7618 52.7222 42.2287 52.8127 41.71 52.96L41 53.12V80L48.24 75.61C48.3191 75.5644 48.4087 75.5403 48.5 75.5403ZM63 43.47C62.7107 42.6494 62.6282 41.7701 62.76 40.91L62.78 40.94C63.0821 40.1724 63.566 39.4895 64.19 38.95C64.8 38.25 65.44 37.58 65.44 36.95C65.44 36.3315 64.8232 35.6745 64.2235 35.0357L64.19 35C63.5647 34.4576 63.0807 33.7712 62.78 33C62.6468 32.1513 62.7223 31.283 63 30.47C63.2609 29.7488 63.2785 28.9621 63.05 28.23C62.7713 27.7423 61.8982 27.4824 61.0617 27.2335L61.05 27.23C60.2175 27.0636 59.4382 26.6963 58.78 26.16C58.2474 25.4995 57.8805 24.7212 57.71 23.89C57.49 23.07 57.24 22.19 56.71 21.89C55.9714 21.6807 55.1845 21.7194 54.47 22C53.6593 22.2727 52.7946 22.3447 51.95 22.21C51.1788 21.9093 50.4924 21.4253 49.95 20.8C49.25 20.19 48.58 19.55 47.95 19.55C47.3315 19.55 46.6745 20.1668 46.0357 20.7665L46 20.8C45.4576 21.4253 44.7712 21.9093 44 22.21C43.1521 22.3464 42.2838 22.2743 41.47 22C40.7555 21.7194 39.9686 21.6807 39.23 21.89C38.7423 22.1687 38.4824 23.0418 38.2335 23.8783L38.23 23.89C38.0636 24.7225 37.6963 25.5018 37.16 26.16C36.5018 26.6963 35.7225 27.0636 34.89 27.23C34.07 27.45 33.19 27.71 32.89 28.23C32.6807 28.9686 32.7194 29.7555 33 30.47C33.2727 31.2807 33.3447 32.1454 33.21 32.99C32.9093 33.7612 32.4253 34.4476 31.8 34.99C31.19 35.64 30.55 36.26 30.55 36.94C30.55 37.6084 31.1684 38.2672 31.7689 38.9069L31.8 38.94C32.4253 39.4824 32.9093 40.1688 33.21 40.94C33.3464 41.7879 33.2743 42.6562 33 43.47C32.7453 44.2047 32.7418 45.0031 32.99 45.74C33.27 46.24 34.15 46.49 34.99 46.74C35.8212 46.9105 36.5995 47.2774 37.26 47.81C37.7963 48.4682 38.1636 49.2475 38.33 50.08C38.55 50.9 38.81 51.78 39.33 52.08C39.7047 52.244 40.1232 52.2791 40.52 52.18C40.81 52.13 41.24 52.03 41.52 51.96C41.8 51.89 42.09 51.83 42.38 51.78H42.49C42.7382 51.7385 42.9886 51.7118 43.24 51.7H43.38C43.6059 51.6958 43.8314 51.7227 44.05 51.78C44.8212 52.0807 45.5076 52.5647 46.05 53.19C46.7 53.8 47.32 54.44 48 54.44C48.6684 54.44 49.3272 53.8216 49.9669 53.2211L50 53.19C50.5424 52.5647 51.2288 52.0807 52 51.78C52.3276 51.7041 52.6657 51.6838 53 51.72C53.5012 51.7636 53.999 51.8404 54.49 51.95C54.85 52.03 55.18 52.16 55.49 52.16H55.58H55.94H56.12C56.213 52.1709 56.307 52.1709 56.4 52.16C56.5287 52.1446 56.6538 52.1074 56.77 52.05C57.27 51.77 57.52 50.89 57.77 50.05C57.9405 49.2188 58.3074 48.4405 58.84 47.78C59.5005 47.2474 60.2788 46.8805 61.11 46.71C61.93 46.49 62.81 46.24 63.11 45.71C63.3193 44.9714 63.2806 44.1845 63 43.47Z" fill="#041D31"/>
<path d="M48.76 75.61C48.6809 75.5644 48.5913 75.5403 48.5 75.5403C48.4087 75.5403 48.3191 75.5644 48.24 75.61L41 80V53.12L41.71 52.96C42.2287 52.8127 42.7618 52.7222 43.3 52.69C43.4481 52.6903 43.5956 52.7071 43.74 52.74C44.3491 53.0092 44.8918 53.4086 45.33 53.91C45.9924 54.7418 46.9475 55.2891 48 55.44C49.0417 55.2818 49.9849 54.7352 50.64 53.91C51.0782 53.4086 51.6209 53.0092 52.23 52.74C52.9047 52.6697 53.5867 52.7447 54.23 52.96C54.8049 53.1181 55.3948 53.2153 55.99 53.25V80L48.76 75.61Z" fill="#FF5C38"/>
<path d="M47.9999 25.0002C48.6159 25.0013 49.2309 25.0481 49.8399 25.1402H49.9199C50.0526 25.1495 50.1834 25.1057 50.2838 25.0185C50.3841 24.9313 50.4457 24.8078 50.4549 24.6752C50.4642 24.5426 50.4205 24.4117 50.3332 24.3114C50.246 24.2111 50.1226 24.1495 49.9899 24.1402C49.3311 24.0432 48.6659 23.9964 47.9999 24.0002C47.9352 24.0002 47.8711 24.0132 47.8115 24.0386C47.7519 24.0639 47.6981 24.1011 47.6533 24.1478C47.6084 24.1945 47.5735 24.2498 47.5506 24.3104C47.5277 24.3709 47.5173 24.4355 47.5199 24.5002C47.5222 24.6287 47.573 24.7516 47.662 24.8443C47.751 24.937 47.8717 24.9927 47.9999 25.0002Z" fill="#041D31"/>
<path d="M35.9998 33.64C36.0493 33.6497 36.1002 33.6497 36.1498 33.64C36.2554 33.6413 36.3588 33.6091 36.4451 33.548C36.5313 33.487 36.596 33.4001 36.6298 33.3C36.8206 32.7023 37.058 32.1205 37.3398 31.56C37.3707 31.501 37.3896 31.4365 37.3952 31.3702C37.4009 31.3039 37.3932 31.2371 37.3728 31.1737C37.3523 31.1104 37.3193 31.0518 37.2759 31.0013C37.2324 30.9509 37.1794 30.9096 37.1198 30.88C37.0013 30.8233 36.8654 30.8145 36.7406 30.8555C36.6158 30.8965 36.5116 30.9841 36.4498 31.1C36.123 31.7102 35.8454 32.3456 35.6198 33C35.6003 33.067 35.5949 33.1373 35.6037 33.2065C35.6125 33.2757 35.6355 33.3423 35.6711 33.4023C35.7067 33.4623 35.7542 33.5144 35.8108 33.5552C35.8673 33.5961 35.9316 33.625 35.9998 33.64Z" fill="#041D31"/>
<path d="M37.8703 30.18C37.9487 30.1788 38.0258 30.1592 38.0953 30.1227C38.1648 30.0862 38.2247 30.0339 38.2703 29.9699C38.6389 29.4621 39.0468 28.984 39.4903 28.54C39.5729 28.4449 39.6166 28.3221 39.6127 28.1962C39.6087 28.0703 39.5574 27.9506 39.469 27.8609C39.3805 27.7712 39.2615 27.7182 39.1357 27.7124C39.0098 27.7067 38.8865 27.7487 38.7903 27.83C38.3073 28.3112 37.8626 28.8295 37.4603 29.3799C37.4219 29.4337 37.3945 29.4945 37.3798 29.5589C37.3651 29.6232 37.3632 29.6899 37.3744 29.755C37.3855 29.82 37.4095 29.8823 37.4448 29.938C37.4801 29.9938 37.5262 30.0421 37.5803 30.08C37.6622 30.1462 37.7649 30.1816 37.8703 30.18Z" fill="#041D31"/>
<path d="M40.6296 27.4102C40.734 27.4062 40.8349 27.3714 40.9196 27.3102C41.4285 26.9393 41.9632 26.6051 42.5196 26.3102C42.583 26.2838 42.6404 26.2445 42.688 26.1949C42.7356 26.1454 42.7725 26.0865 42.7963 26.022C42.8202 25.9575 42.8305 25.8888 42.8265 25.8201C42.8226 25.7515 42.8046 25.6844 42.7736 25.623C42.7425 25.5617 42.6992 25.5074 42.6462 25.4635C42.5933 25.4197 42.5318 25.3872 42.4658 25.3682C42.3997 25.3491 42.3304 25.3439 42.2622 25.3529C42.1941 25.3618 42.1285 25.3848 42.0696 25.4202C41.4622 25.7303 40.8803 26.0881 40.3296 26.4902C40.2241 26.5699 40.1537 26.6874 40.1331 26.818C40.1126 26.9486 40.1436 27.082 40.2196 27.1902C40.2661 27.2562 40.3274 27.3104 40.3986 27.3486C40.4697 27.3868 40.5488 27.4079 40.6296 27.4102Z" fill="#041D31"/>
<path d="M44.1005 25.6198C44.1534 25.6294 44.2076 25.6294 44.2605 25.6198C44.8586 25.4274 45.4703 25.2803 46.0905 25.1798C46.1552 25.1701 46.2174 25.1476 46.2732 25.1135C46.3291 25.0794 46.3776 25.0345 46.4158 24.9813C46.454 24.9282 46.4812 24.868 46.4957 24.8042C46.5103 24.7403 46.5119 24.6743 46.5005 24.6098C46.4907 24.5448 46.4682 24.4823 46.4343 24.426C46.4003 24.3696 46.3556 24.3206 46.3026 24.2816C46.2497 24.2425 46.1896 24.2144 46.1257 24.1986C46.0618 24.1829 45.9955 24.1799 45.9305 24.1898C45.2524 24.2979 44.5838 24.4584 43.9305 24.6698C43.8046 24.711 43.7001 24.8005 43.6401 24.9186C43.5801 25.0367 43.5695 25.1738 43.6105 25.2998C43.6469 25.3988 43.7142 25.4834 43.8025 25.541C43.8907 25.5987 43.9953 25.6263 44.1005 25.6198Z" fill="#041D31"/>
<path d="M59.3996 33.2501C59.5999 33.8466 59.7505 34.4587 59.8496 35.0801C59.8685 35.1967 59.928 35.3028 60.0177 35.3797C60.1074 35.4566 60.2214 35.4992 60.3396 35.5001H60.4196C60.4843 35.4904 60.5464 35.4678 60.6023 35.4338C60.6582 35.3997 60.7066 35.3547 60.7448 35.3016C60.7831 35.2485 60.8102 35.1882 60.8248 35.1244C60.8393 35.0606 60.841 34.9945 60.8296 34.9301C60.7246 34.2514 60.5641 33.5825 60.3496 32.9301C60.3293 32.8679 60.2968 32.8103 60.2539 32.7609C60.211 32.7114 60.1587 32.671 60.1 32.6421C60.0413 32.6132 59.9773 32.5964 59.912 32.5926C59.8467 32.5888 59.7812 32.5982 59.7196 32.6201C59.5936 32.6613 59.4892 32.7508 59.4292 32.8689C59.3692 32.987 59.3585 33.1241 59.3996 33.2501Z" fill="#041D31"/>
<path d="M51.6702 25.5698C52.2697 25.7596 52.8518 26.0005 53.4102 26.2898C53.4831 26.3205 53.5611 26.3375 53.6402 26.3398C53.7326 26.3398 53.8233 26.3147 53.9026 26.2671C53.9818 26.2195 54.0467 26.1513 54.0902 26.0698C54.1495 25.9517 54.1596 25.8149 54.1184 25.6894C54.0772 25.5638 53.9879 25.4597 53.8702 25.3998C53.2674 25.0931 52.6423 24.8323 52.0002 24.6198C51.8742 24.5788 51.7371 24.5894 51.619 24.6494C51.5009 24.7094 51.4114 24.8139 51.3702 24.9398C51.348 25.0008 51.3383 25.0656 51.3414 25.1305C51.3445 25.1953 51.3605 25.2589 51.3884 25.3175C51.4163 25.3761 51.4556 25.4286 51.504 25.4719C51.5524 25.5152 51.6088 25.5485 51.6702 25.5698Z" fill="#041D31"/>
<path d="M58.68 31.5098C58.721 31.5913 58.7839 31.6598 58.8616 31.7075C58.9393 31.7552 59.0288 31.7802 59.12 31.7798C59.1997 31.7834 59.279 31.7661 59.35 31.7298C59.4668 31.6662 59.554 31.5595 59.5932 31.4325C59.6325 31.3055 59.6206 31.1682 59.56 31.0498C59.2476 30.4469 58.8899 29.8686 58.49 29.3198C58.4513 29.2666 58.4025 29.2216 58.3463 29.1873C58.2902 29.153 58.2278 29.1301 58.1628 29.1198C58.0978 29.1096 58.0314 29.1123 57.9675 29.1278C57.9035 29.1432 57.8432 29.1711 57.79 29.2098C57.7368 29.2486 57.6918 29.2974 57.6575 29.3535C57.6232 29.4097 57.6003 29.472 57.5901 29.537C57.5798 29.602 57.5825 29.6684 57.598 29.7324C57.6134 29.7963 57.6413 29.8566 57.68 29.9098C58.0507 30.4189 58.3849 30.9536 58.68 31.5098Z" fill="#041D31"/>
<path d="M56.46 28.49C56.5539 28.5805 56.6795 28.6308 56.81 28.63C56.8756 28.6308 56.9406 28.6179 57.0009 28.592C57.0611 28.5662 57.1153 28.528 57.16 28.48C57.2078 28.4351 57.2459 28.3809 57.272 28.3207C57.2981 28.2605 57.3115 28.1956 57.3115 28.13C57.3115 28.0644 57.2981 27.9995 57.272 27.9393C57.2459 27.8791 57.2078 27.8249 57.16 27.78C56.6812 27.2974 56.1627 26.8559 55.61 26.46C55.5574 26.4198 55.4971 26.3907 55.4329 26.3744C55.3687 26.3581 55.3019 26.355 55.2365 26.3653C55.171 26.3756 55.1084 26.399 55.0523 26.4342C54.9961 26.4694 54.9477 26.5156 54.91 26.57C54.834 26.6782 54.803 26.8116 54.8236 26.9422C54.8441 27.0728 54.9145 27.1903 55.02 27.27C55.5338 27.6349 56.0156 28.0431 56.46 28.49Z" fill="#041D31"/>
<path d="M60.0498 40.3901C59.9875 40.3684 59.9214 40.3595 59.8556 40.3639C59.7898 40.3683 59.7255 40.386 59.6667 40.4159C59.6078 40.4458 59.5556 40.4873 59.5132 40.5378C59.4708 40.5884 59.439 40.647 59.4198 40.7101C59.2195 41.3057 58.979 41.8871 58.6998 42.4501C58.6398 42.567 58.6281 42.7028 58.6674 42.8281C58.7067 42.9535 58.7938 43.0584 58.9098 43.1201C58.9827 43.1508 59.0607 43.1678 59.1398 43.1701C59.2322 43.1701 59.3229 43.145 59.4022 43.0974C59.4815 43.0498 59.5463 42.9816 59.5898 42.9001C59.8983 42.2878 60.1591 41.6525 60.3698 41.0001C60.4048 40.8768 60.3912 40.7447 60.3316 40.6312C60.2721 40.5177 60.1712 40.4314 60.0498 40.3901Z" fill="#041D31"/>
<path d="M48.0004 49.0001C47.3779 48.9986 46.7562 48.9519 46.1404 48.8601C46.0094 48.8397 45.8756 48.871 45.7673 48.9476C45.659 49.0241 45.5848 49.1398 45.5604 49.2701C45.5505 49.3351 45.5535 49.4015 45.5692 49.4653C45.585 49.5292 45.6131 49.5893 45.6522 49.6423C45.6912 49.6952 45.7403 49.7399 45.7966 49.7739C45.8529 49.8078 45.9154 49.8303 45.9804 49.8401C46.6482 49.9488 47.3238 50.0023 48.0004 50.0001C48.133 50.0001 48.2602 49.9474 48.354 49.8537C48.4477 49.7599 48.5004 49.6327 48.5004 49.5001C48.5004 49.3675 48.4477 49.2403 48.354 49.1466C48.2602 49.0528 48.133 49.0001 48.0004 49.0001Z" fill="#041D31"/>
<path d="M36.0002 36.9998C36.0017 36.3806 36.0485 35.7623 36.1402 35.1498C36.1614 35.0172 36.1291 34.8816 36.0503 34.7729C35.9715 34.6641 35.8528 34.5911 35.7202 34.5698C35.5876 34.5486 35.452 34.581 35.3432 34.6597C35.2344 34.7385 35.1614 34.8572 35.1402 34.9898C35.0435 35.6554 34.9967 36.3273 35.0002 36.9998C35.0001 37.0646 35.0132 37.1287 35.0385 37.1883C35.0639 37.2478 35.1011 37.3017 35.1478 37.3465C35.1945 37.3914 35.2498 37.4263 35.3103 37.4492C35.3709 37.4721 35.4355 37.4825 35.5002 37.4798C35.6294 37.4799 35.7536 37.43 35.8468 37.3405C35.9401 37.251 35.995 37.1289 36.0002 36.9998Z" fill="#041D31"/>
<path d="M51.7193 48.4098C51.1222 48.6057 50.5102 48.7529 49.8893 48.8498C49.7591 48.8719 49.6426 48.9437 49.5643 49.05C49.4859 49.1564 49.4519 49.2889 49.4693 49.4198C49.4882 49.5391 49.5489 49.6477 49.6404 49.7265C49.732 49.8052 49.8485 49.8489 49.9693 49.8498H49.9993C50.6773 49.7412 51.3459 49.5807 51.9993 49.3698C52.1252 49.3286 52.2296 49.2391 52.2896 49.121C52.3496 49.0029 52.3603 48.8658 52.3193 48.7398C52.2781 48.6202 52.1938 48.5201 52.0829 48.4591C51.972 48.3981 51.8424 48.3806 51.7193 48.4098Z" fill="#041D31"/>
<path d="M60.5002 36.4698C60.364 36.475 60.2353 36.5334 60.1418 36.6326C60.0483 36.7317 59.9974 36.8635 60.0002 36.9998C60.0003 37.6294 59.9501 38.2581 59.8502 38.8798C59.8327 39.0107 59.8668 39.1432 59.9451 39.2495C60.0235 39.3558 60.14 39.4276 60.2702 39.4498H60.3502C60.4688 39.451 60.5839 39.4091 60.6741 39.3318C60.7642 39.2546 60.8232 39.1473 60.8402 39.0298C60.9488 38.3586 61.0023 37.6797 61.0002 36.9998C61.0074 36.9309 60.9998 36.8614 60.9776 36.7958C60.9555 36.7302 60.9195 36.6702 60.872 36.6199C60.8245 36.5695 60.7667 36.53 60.7025 36.5041C60.6383 36.4782 60.5693 36.4665 60.5002 36.4698Z" fill="#041D31"/>
<path d="M57.7097 44.0498C57.341 44.5576 56.9331 45.0358 56.4897 45.4798C56.4428 45.5263 56.4056 45.5816 56.3802 45.6425C56.3549 45.7034 56.3418 45.7688 56.3418 45.8348C56.3418 45.9008 56.3549 45.9662 56.3802 46.0271C56.4056 46.088 56.4428 46.1433 56.4897 46.1898C56.5351 46.2369 56.5894 46.2744 56.6495 46.3002C56.7096 46.326 56.7743 46.3394 56.8397 46.3398C56.9748 46.3395 57.1043 46.2855 57.1997 46.1898C57.6795 45.7084 58.1209 45.1902 58.5197 44.6398C58.5979 44.5324 58.6303 44.3983 58.6097 44.267C58.589 44.1357 58.5171 44.018 58.4097 43.9398C58.3023 43.8616 58.1682 43.8292 58.0369 43.8498C57.9056 43.8705 57.7879 43.9424 57.7097 44.0498Z" fill="#041D31"/>
<path d="M55.0606 46.7098C54.5543 47.0846 54.0193 47.419 53.4606 47.7098C53.3279 47.739 53.2124 47.8197 53.1392 47.9341C53.0661 48.0485 53.0414 48.1872 53.0706 48.3198C53.0997 48.4524 53.1804 48.568 53.2948 48.6412C53.4092 48.7143 53.5479 48.739 53.6806 48.7098C53.7612 48.7103 53.8405 48.6896 53.9106 48.6498C54.5167 48.3375 55.0983 47.9798 55.6506 47.5798C55.7113 47.5446 55.764 47.4969 55.805 47.4399C55.8461 47.3829 55.8747 47.3178 55.889 47.249C55.9033 47.1803 55.9029 47.1092 55.8879 47.0406C55.8729 46.9719 55.8436 46.9072 55.8019 46.8507C55.7601 46.7941 55.707 46.747 55.6459 46.7124C55.5847 46.6778 55.517 46.6564 55.447 46.6497C55.3771 46.643 55.3065 46.6512 55.2399 46.6736C55.1733 46.696 55.1122 46.7322 55.0606 46.7798V46.7098Z" fill="#041D31"/>
<path d="M44.3098 48.42C43.7096 48.232 43.1273 47.991 42.5698 47.7C42.5114 47.6698 42.4475 47.6514 42.382 47.6458C42.3164 47.6403 42.2504 47.6477 42.1878 47.6677C42.1251 47.6876 42.067 47.7198 42.0167 47.7622C41.9664 47.8046 41.925 47.8565 41.8948 47.915C41.8646 47.9734 41.8462 48.0372 41.8406 48.1028C41.8351 48.1683 41.8425 48.2343 41.8625 48.297C41.8825 48.3597 41.9146 48.4178 41.957 48.4681C41.9994 48.5183 42.0514 48.5598 42.1098 48.59C42.7183 48.8992 43.3503 49.16 43.9998 49.37C44.0493 49.3794 44.1002 49.3794 44.1498 49.37C44.2824 49.3912 44.418 49.3589 44.5268 49.2801C44.6355 49.2013 44.7086 49.0826 44.7298 48.95C44.751 48.8174 44.7187 48.6818 44.6399 48.573C44.5611 48.4642 44.4424 48.3912 44.3098 48.37V48.42Z" fill="#041D31"/>
<path d="M37.31 42.4701C37.2814 42.4108 37.2411 42.358 37.1916 42.3146C37.142 42.2713 37.0843 42.2383 37.0217 42.2178C36.9592 42.1973 36.8932 42.1896 36.8276 42.1951C36.762 42.2006 36.6982 42.2193 36.64 42.2501C36.5241 42.3119 36.4366 42.4161 36.3956 42.5409C36.3546 42.6657 36.3633 42.8016 36.42 42.9201C36.7301 43.5275 37.0879 44.1093 37.49 44.6601C37.5382 44.723 37.6003 44.7738 37.6714 44.8085C37.7426 44.8432 37.8209 44.8609 37.9 44.8601C38.0035 44.8596 38.1045 44.8283 38.19 44.7701C38.2433 44.7314 38.2885 44.6826 38.3229 44.6265C38.3573 44.5704 38.3802 44.508 38.3904 44.4429C38.4007 44.3779 38.3979 44.3115 38.3824 44.2475C38.3669 44.1835 38.3389 44.1232 38.3 44.0701C37.9326 43.5609 37.6017 43.0262 37.31 42.4701Z" fill="#041D31"/>
<path d="M36.5899 40.73C36.3986 40.1316 36.2516 39.5199 36.1499 38.9C36.1287 38.7674 36.0557 38.6486 35.9469 38.5699C35.8381 38.4911 35.7025 38.4588 35.5699 38.48C35.4373 38.5012 35.3186 38.5742 35.2398 38.683C35.161 38.7918 35.1287 38.9274 35.1499 39.06C35.258 39.7381 35.4185 40.4067 35.6299 41.06C35.6637 41.1601 35.7284 41.247 35.8146 41.308C35.9009 41.3691 36.0042 41.4013 36.1099 41.4C36.1594 41.4097 36.2104 41.4097 36.2599 41.4C36.3279 41.3812 36.3911 41.3482 36.4455 41.3032C36.4998 41.2583 36.544 41.2023 36.5752 41.139C36.6064 41.0757 36.6238 41.0066 36.6263 40.9361C36.6289 40.8656 36.6165 40.7954 36.5899 40.73Z" fill="#041D31"/>
<path d="M39.5307 45.5C39.4842 45.4531 39.4289 45.4159 39.368 45.3905C39.307 45.3651 39.2417 45.3521 39.1757 45.3521C39.1097 45.3521 39.0443 45.3651 38.9834 45.3905C38.9224 45.4159 38.8671 45.4531 38.8207 45.5C38.729 45.5934 38.6777 45.7191 38.6777 45.8499C38.6777 45.9808 38.729 46.1065 38.8207 46.2C39.3019 46.6829 39.8202 47.1276 40.3707 47.5299C40.4593 47.5895 40.5639 47.6209 40.6707 47.6199C40.7748 47.6179 40.8756 47.5834 40.9592 47.5213C41.0427 47.4591 41.1048 47.3725 41.1367 47.2734C41.1686 47.1743 41.1688 47.0677 41.1373 46.9685C41.1057 46.8693 41.044 46.7824 40.9607 46.72C40.4528 46.3513 39.9747 45.9434 39.5307 45.5Z" fill="#041D31"/>
<path d="M55.3397 33.6701C55.2512 33.5709 55.1274 33.5101 54.9948 33.5008C54.8622 33.4914 54.7312 33.5343 54.6297 33.6201L45.6997 41.2701L41.9997 36.3701C41.9603 36.3176 41.9109 36.2733 41.8544 36.2399C41.7979 36.2064 41.7354 36.1844 41.6704 36.1751C41.6054 36.1658 41.5392 36.1695 41.4756 36.1857C41.412 36.202 41.3522 36.2307 41.2997 36.2701C41.1957 36.3512 41.1273 36.4695 41.1086 36.6C41.09 36.7305 41.1226 36.8631 41.1997 36.9701L45.1997 42.3001L45.3097 42.3801H45.3697C45.439 42.3939 45.5103 42.3939 45.5797 42.3801C45.6794 42.3761 45.7762 42.345 45.8597 42.2901H45.9997L55.3297 34.2901C55.3992 34.2022 55.4379 34.0939 55.4397 33.9818C55.4415 33.8697 55.4063 33.7602 55.3397 33.6701Z" fill="#041D31"/>
<rect x="20" y="98" width="53" height="3" rx="1.5" fill="#ADADAD"/>
<rect x="20" y="110" width="142" height="3" rx="1.5" fill="#D1D1D1"/>
<rect x="20" y="117" width="88" height="3" rx="1.5" fill="#D1D1D1"/>
<rect x="20" y="124" width="69" height="3" rx="1.5" fill="#D1D1D1"/>
<rect x="20" y="131" width="88" height="3" rx="1.5" fill="#D1D1D1"/>
<rect x="20" y="152" width="88" height="3" rx="1.5" fill="#041D31"/>
<rect x="111" y="117" width="51" height="3" rx="1.5" fill="#D1D1D1"/>
<path d="M179 1H243V134.29L213.5 152L179 134.29V1Z" fill="#041D31" fill-opacity="0.75"/>
<rect x="190" y="91" width="42" height="42" rx="21" stroke="white" stroke-opacity="0.5" stroke-width="2"/>
<path d="M209.57 107.03L217.769 115.006L212.535 120.097C212.535 120.097 211.875 120.787 211.06 120.787C210.246 120.787 209.586 120.097 209.586 120.097L201.122 111.864V103.79C201.122 103.79 201.029 102.932 201.505 102.516C201.933 102.141 202.597 102.197 202.597 102.197H206.091V104.614M211.309 115.006L204.601 108.48L209.75 103.472C209.75 103.472 210.337 102.834 211.06 102.834C211.784 102.834 212.371 103.472 212.371 103.472L220.998 111.864V120.097C220.998 120.097 221.047 120.84 220.616 121.212C220.234 121.543 219.688 121.531 219.688 121.531H216.029V119.356M201.122 114.281V120.362C201.122 120.362 201.04 120.967 201.395 121.265C201.702 121.523 202.16 121.531 202.16 121.531H206.091V119.356M216.029 104.614V102.197H219.579C219.579 102.197 220.143 102.162 220.562 102.515C221.045 102.923 220.998 103.79 220.998 103.79V109.447" stroke="#FF9053" stroke-width="1.59959"/>
</svg>
