<svg width="27" height="26" viewBox="0 0 27 26" fill="none" xmlns="http://www.w3.org/2000/svg">
<path id="Vector 9" d="M11.7797 7.57831L21.2625 16.7769L15.209 22.6489C15.209 22.6489 14.4456 23.4453 13.5038 23.4453C12.562 23.4453 11.7986 22.6489 11.7986 22.6489L2.00948 13.1532V3.84129C2.00948 3.84129 1.9016 2.85112 2.45157 2.37099C2.94655 1.93886 3.71468 2.00342 3.71468 2.00342H7.75664V4.79086M13.7912 16.7769L6.03249 9.25077L11.9881 3.47372C11.9881 3.47372 12.6667 2.73857 13.5038 2.73857C14.3409 2.73857 15.0195 3.47372 15.0195 3.47372L24.9981 13.1532V22.6489C24.9981 22.6489 25.0538 23.5062 24.5561 23.9353C24.1136 24.3168 23.4824 24.303 23.4824 24.303H19.251V21.7943M2.00948 15.9406V22.9551C2.00948 22.9551 1.91459 23.6526 2.32528 23.9966C2.67994 24.2937 3.20944 24.303 3.20944 24.303H7.75664V21.7943M19.251 4.79086V2.00342H23.3561C23.3561 2.00342 24.0083 1.96354 24.4929 2.37093C25.0521 2.84099 24.9981 3.84129 24.9981 3.84129V10.3657" stroke="#FF9053" stroke-width="2.39245"/>
</svg>
