<svg width="17" height="18" viewBox="0 0 17 18" fill="none" xmlns="http://www.w3.org/2000/svg">
<path d="M15.9005 1.95186C15.7221 1.77353 15.4547 1.77353 15.2763 1.95186L7.96494 9.21867L5.11172 6.05337C4.93339 5.87504 4.6659 5.87504 4.48757 6.00879C4.30925 6.18711 4.30925 6.4546 4.44299 6.63293C4.79964 7.03417 5.1563 7.4354 5.51295 7.79205C6.09251 8.4162 6.67207 9.04034 7.20705 9.66448C7.29622 9.75364 7.38538 9.84281 7.42996 9.93197C7.56371 10.0657 7.69745 10.2886 7.92036 10.2886C8.0541 10.2886 8.14327 10.244 8.23243 10.1549L15.9005 2.576C16.0788 2.39768 16.0788 2.13019 15.9005 1.95186Z" fill="black"/>
<path d="M7.96488 17.0203C7.16241 17.0203 6.31536 16.8865 5.51289 16.619C3.46214 15.9503 1.81262 14.5683 0.876404 12.6513C-1.12977 8.7281 0.430588 3.8687 4.30919 1.86253C6.35994 0.792571 8.76735 0.703408 10.9073 1.55046C11.3085 1.6842 11.6652 1.90711 12.0218 2.08544C12.2447 2.21918 12.2893 2.48667 12.1556 2.70958C12.0218 2.93249 11.7543 2.97707 11.5314 2.84333C11.2193 2.665 10.9073 2.48667 10.5506 2.35293C8.63361 1.59504 6.53827 1.6842 4.71042 2.62042C1.23306 4.40368 -0.148973 8.7281 1.63429 12.2055C2.48134 13.8996 3.95254 15.1479 5.78038 15.7274C7.56365 16.307 9.48066 16.1286 11.1302 15.2816C14.2509 13.6767 15.7221 9.9318 14.563 6.58818C14.4738 6.36527 14.6075 6.09778 14.8305 6.00862C15.0534 5.91946 15.3208 6.0532 15.41 6.27611C16.7029 10.021 15.0534 14.2562 11.5314 16.0395C10.4169 16.7082 9.21317 17.0203 7.96488 17.0203Z" fill="black"/>
</svg>
