<svg width="18" height="24" viewBox="0 0 18 24" fill="none" xmlns="http://www.w3.org/2000/svg">
<path d="M15.5876 10.115H14.1217V6.98765C14.1217 3.95803 11.6296 1.46594 8.59995 1.46594C5.57034 1.46594 3.07825 3.95803 3.07825 6.98765V10.115H1.6123V6.98765C1.6123 3.12733 4.73964 0 8.59995 0C12.4603 0 15.5876 3.12733 15.5876 6.98765V10.115Z" fill="#041D31"/>
<path d="M14.8549 23.4062H2.34551C1.07503 23.4062 0 22.3311 0 21.0607V11.6786C0 10.4081 1.07503 9.33313 2.34551 9.33313H14.8549C16.1254 9.33313 17.2004 10.4081 17.2004 11.6786V21.0607C17.2004 22.38 16.1254 23.4062 14.8549 23.4062ZM2.34551 10.8968C1.90573 10.8968 1.56368 11.2388 1.56368 11.6786V21.0607C1.56368 21.5004 1.90573 21.8425 2.34551 21.8425H14.8549C15.2947 21.8425 15.6367 21.5004 15.6367 21.0607V11.6786C15.6367 11.2388 15.2947 10.8968 14.8549 10.8968H2.34551Z" fill="#041D31"/>
<path d="M10.1644 14.0241C10.1644 14.9037 9.48034 15.5878 8.60078 15.5878C7.72121 15.5878 7.03711 14.9037 7.03711 14.0241C7.03711 13.1446 7.72121 12.4604 8.60078 12.4604C9.48034 12.4604 10.1644 13.1934 10.1644 14.0241Z" fill="#041D31"/>
<path d="M8.9914 14.0242H8.20957L7.42773 18.7152H9.77323L8.9914 14.0242Z" fill="#041D31"/>
</svg>
