<svg width="12" height="13" viewBox="0 0 12 13" fill="none" xmlns="http://www.w3.org/2000/svg">
<path opacity="0.99" d="M0.417969 4.46606H1.79297V0.341064H3.16797L5.51922 4.46606H8.66797V0.341064H10.043V4.46606H11.418V5.84106H10.043V7.21606H11.418V8.59106H10.043V12.7161H8.66797L6.30984 8.59106H3.16797V12.7161H1.79297V8.59106H0.417969V7.21606H1.79297V5.84106H0.417969V4.46606ZM3.16797 4.46606H3.94484L3.16797 3.11169V4.46606ZM3.16797 5.84106V7.21606H5.51922L4.73547 5.84106H3.16797ZM8.66797 9.96606V8.59106H7.87734L8.66797 9.96606ZM6.30297 5.84106L7.09359 7.21606H8.66797V5.84106H6.30297Z" fill="#041D31" stroke="#041D31" stroke-width="0.4"/>
</svg>
