<svg width="32" height="32" viewBox="0 0 32 32" fill="none" xmlns="http://www.w3.org/2000/svg">
<mask id="mask0_730_5266" style="mask-type:alpha" maskUnits="userSpaceOnUse" x="0" y="0" width="32" height="32">
<rect width="32" height="32" fill="#D9D9D9"/>
</mask>
<g mask="url(#mask0_730_5266)">
<path d="M12.9997 21.3847L21.3843 16L12.9997 10.6154V21.3847ZM16.002 28.6667C14.25 28.6667 12.6032 28.3343 11.0617 27.6694C9.52012 27.0045 8.17923 26.1022 7.03901 24.9624C5.89879 23.8226 4.99601 22.4823 4.33067 20.9414C3.66556 19.4005 3.33301 17.7542 3.33301 16.0024C3.33301 14.2504 3.66545 12.6036 4.33034 11.062C4.99523 9.52048 5.89756 8.1796 7.03734 7.03937C8.17712 5.89915 9.51745 4.99637 11.0583 4.33104C12.5992 3.66593 14.2456 3.33337 15.9973 3.33337C17.7493 3.33337 19.3961 3.66582 20.9377 4.33071C22.4792 4.9956 23.8201 5.89793 24.9603 7.03771C26.1006 8.17749 27.0033 9.51782 27.6687 11.0587C28.3338 12.5996 28.6663 14.2459 28.6663 15.9977C28.6663 17.7497 28.3339 19.3965 27.669 20.938C27.0041 22.4796 26.1018 23.8205 24.962 24.9607C23.8222 26.1009 22.4819 27.0037 20.941 27.669C19.4001 28.3342 17.7538 28.6667 16.002 28.6667ZM15.9997 26.6667C18.9775 26.6667 21.4997 25.6334 23.5663 23.5667C25.633 21.5 26.6663 18.9778 26.6663 16C26.6663 13.0223 25.633 10.5 23.5663 8.43337C21.4997 6.36671 18.9775 5.33337 15.9997 5.33337C13.0219 5.33337 10.4997 6.36671 8.43301 8.43337C6.36634 10.5 5.33301 13.0223 5.33301 16C5.33301 18.9778 6.36634 21.5 8.43301 23.5667C10.4997 25.6334 13.0219 26.6667 15.9997 26.6667Z" fill="#F5F6FA"/>
</g>
</svg>
