<svg width="15" height="14" viewBox="0 0 15 14" fill="none" xmlns="http://www.w3.org/2000/svg">
<path d="M7.23843 0.331663C7.31769 0.087719 7.6628 0.0877187 7.74207 0.331662L9.2142 4.86242C9.24964 4.97151 9.35131 5.04537 9.46602 5.04537H14.2299C14.4864 5.04537 14.5931 5.3736 14.3856 5.52436L10.5315 8.32452C10.4387 8.39195 10.3998 8.51146 10.4353 8.62056L11.9074 13.1513C11.9867 13.3953 11.7075 13.5981 11.5 13.4473L7.64588 10.6472C7.55308 10.5798 7.42741 10.5798 7.33461 10.6472L3.48052 13.4473C3.27301 13.5981 2.99381 13.3953 3.07307 13.1513L4.5452 8.62056C4.58065 8.51146 4.54182 8.39195 4.44901 8.32452L0.594924 5.52436C0.387414 5.3736 0.49406 5.04537 0.750557 5.04537H5.51447C5.62918 5.04537 5.73085 4.97151 5.76629 4.86242L7.23843 0.331663Z" fill="#FFA800"/>
</svg>
