<svg width="24" height="24" viewBox="0 0 24 24" fill="none" xmlns="http://www.w3.org/2000/svg">
<path d="M12 6.05444C12.0431 6.05444 16.2975 6.05444 19.1063 6.25694L19.23 6.26819C19.605 6.30194 20.01 6.34132 20.4075 6.75194C20.595 6.93944 20.8088 7.60319 20.8819 8.07757C21.0004 9.11784 21.063 10.1637 21.0694 11.2107V12.7557C21.0628 13.8033 21.0002 14.8498 20.8819 15.8907C20.8125 16.3538 20.5931 17.0269 20.4094 17.2032C20.0138 17.6119 19.5994 17.6513 19.2337 17.6869L19.1063 17.7001C16.3463 17.8876 12.1894 17.9063 12.0019 17.9063C11.7863 17.9063 6.75187 17.8557 5.145 17.7188C5.04938 17.7038 4.9575 17.6907 4.84875 17.6794C4.42125 17.6288 3.93562 17.5707 3.58687 17.2088C3.39937 17.0213 3.18563 16.3594 3.11438 15.8869C2.99585 14.8467 2.93326 13.8008 2.92687 12.7538V11.2238C2.93354 10.1768 2.99613 9.13098 3.11438 8.09069C3.1875 7.61257 3.405 6.94882 3.58875 6.76507C3.98625 6.35444 4.40062 6.31694 4.76625 6.28132L4.89 6.27007C7.7025 6.06944 11.9531 6.06757 11.9944 6.06757H12M12 4.84882C12 4.84882 7.67063 4.84882 4.785 5.05507C4.38188 5.10194 3.50438 5.10569 2.7225 5.91569C2.10563 6.53444 1.90312 7.93882 1.90312 7.93882C1.77201 9.02912 1.70003 10.1257 1.6875 11.2238V12.7688C1.69642 13.8711 1.76528 14.9721 1.89375 16.0669C1.89375 16.0669 2.09438 17.4713 2.71312 18.0882C3.49875 18.8982 4.52813 18.8738 4.9875 18.9601C6.6375 19.1157 12 19.1644 12 19.1644C12 19.1644 16.3331 19.1644 19.2206 18.9526C19.6238 18.9057 20.5031 18.9001 21.2831 18.0901C21.9 17.4732 22.1025 16.0688 22.1025 16.0688C22.2322 14.9741 22.3023 13.8731 22.3125 12.7707V11.2257C22.3035 10.1234 22.2347 9.0224 22.1063 7.92757C22.1063 7.92757 21.9056 6.52319 21.2869 5.90444C20.5031 5.09444 19.6238 5.08882 19.2244 5.04382C16.3331 4.83569 12 4.83569 12 4.83569V4.84882Z" fill="#062B31"/>
<path d="M10.1494 8.92688V15.0731L15.3975 12L10.1494 8.92688Z" fill="#062B31"/>
</svg>
